<svg width="156" height="63" viewBox="0 0 156 63" fill="none" xmlns="http://www.w3.org/2000/svg">
<path d="M59.1952 43.3734V46.1973H45.9675V27.3711H58.9474V30.1956H49.0885V35.1494H56.7179V37.9236H49.0885V43.3734H59.1952Z" fill="#565656"/>
<path d="M77.2268 30.2449H70.5386V46.1973H67.368V30.2449H60.6798V27.3711H77.2268V30.2449Z" fill="#565656"/>
<path d="M94.3285 27.4062V46.2324H91.2071V38.0084H81.7943V46.2324H78.6733V27.4062H81.7943V35.1349H91.2071V27.4062H94.3285Z" fill="#565656"/>
<path d="M117.687 43.3592V46.2324H116.151C114.17 46.2324 113.03 45.093 113.03 43.0124V38.0087H105.5V46.2324H102.379V27.4066H105.5V35.1848H109.265L114.022 27.4066H117.538L112.485 35.1848H116.151V42.4177C116.151 42.9628 116.498 43.3592 117.093 43.3592H117.687Z" fill="#565656"/>
<path d="M134.53 31.37L129.576 46.0347C128.337 49.7998 126.652 51.4346 124.175 51.4346C121.649 51.4346 119.964 49.7501 119.964 47.1738C119.964 45.7868 120.46 44.6474 121.451 43.6569H123.581L118.775 31.37H121.996L126.355 43.6569H127.545L131.359 31.37H134.53ZM126.306 46.9263L126.603 46.0347H122.937C122.689 46.3812 122.59 46.7777 122.59 47.2234C122.59 48.2639 123.234 48.9575 124.225 48.9575C125.166 48.9575 125.86 48.2143 126.306 46.9263Z" fill="#565656"/>
<path d="M136.049 26.2816H139.319V29.2538H136.049V26.2816ZM136.198 31.3347H139.17V46.1973H136.198V31.3347Z" fill="#565656"/>
<path d="M156 31.3347L150.104 46.1973H146.636L140.79 31.3347H144.06L148.469 43.1752L152.829 31.3347H156Z" fill="#565656"/>
<path d="M17.043 0L0.626587 37.2033L17.043 42.9991L34.6813 37.2033L17.043 0Z" fill="url(#paint0_linear_238_4201)"/>
<path d="M17.6383 62.2041L34.0547 42.0752L17.6383 48.0747L0 42.0752L17.6383 62.2041Z" fill="url(#paint1_linear_238_4201)"/>
<defs>
<linearGradient id="paint0_linear_238_4201" x1="0.626587" y1="40.6025" x2="30.7181" y2="40.6025" gradientUnits="userSpaceOnUse">
<stop offset="0.071561" stop-color="#49D48E"/>
<stop offset="0.219552" stop-color="#3AD2DF"/>
<stop offset="0.324378" stop-color="#2ECEF8"/>
<stop offset="0.505208" stop-color="#43BCFF"/>
<stop offset="0.666667" stop-color="#5ACAF7"/>
<stop offset="0.744792" stop-color="#97CFBD"/>
<stop offset="0.911458" stop-color="#FFCF32"/>
</linearGradient>
<linearGradient id="paint1_linear_238_4201" x1="34.0547" y1="45.4744" x2="3.96312" y2="45.4744" gradientUnits="userSpaceOnUse">
<stop offset="0.071561" stop-color="#49D48E"/>
<stop offset="0.219552" stop-color="#3AD2DF"/>
<stop offset="0.324378" stop-color="#2ECEF8"/>
<stop offset="0.505208" stop-color="#43BCFF"/>
<stop offset="0.666667" stop-color="#5ACAF7"/>
<stop offset="0.744792" stop-color="#97CFBD"/>
<stop offset="0.911458" stop-color="#FFCF32"/>
</linearGradient>
</defs>
</svg>
