<svg width="619" height="132" viewBox="0 0 619 132" fill="none" xmlns="http://www.w3.org/2000/svg">
<path d="M16.5194 23.0833V21.5833H18.0194H31.1994L41.3727 10.0904H3.5V18.7063L16.5194 28.6092V23.0833Z" stroke="currentColor" stroke-width="3"/>
<path d="M67.1179 21.584V10.0911H49.7582L39.5848 21.584H67.1179Z" stroke="#565656" stroke-width="3"/>
<path d="M18.0194 92.218H16.5194V90.718V76.1043L3.5 82.7653V103.711H14.8204L24.8288 92.218H18.0194Z" stroke="#565656" stroke-width="3"/>
<path d="M68.3891 103.71V92.2171H52.7873L61.1836 103.71H68.3891Z" stroke="#565656" stroke-width="3"/>
<path d="M55.6762 61.248V50.0101H52.4243L41.8775 61.248H55.6762Z" stroke="#565656" stroke-width="3"/>
<path d="M16.5194 62.7481V61.2481H18.0194H33.2718L43.816 50.0102H18.0194H16.5194V48.5102V36.4954L3.5 26.5925V75.7146L16.5194 69.0536V62.7481Z" stroke="#565656" stroke-width="3"/>
<path d="M45.0127 92.218H33.152L23.1436 103.711H53.4089L45.0127 92.218Z" stroke="#565656" stroke-width="3"/>
<path d="M113.344 59.9207V81.8017L126.615 91.4554V52.6641L113.344 59.9207Z" stroke="#565656" stroke-width="3"/>
<path d="M113.344 103.71H126.615V99.2171L113.344 89.5635V103.71Z" stroke="#565656" stroke-width="3"/>
<path d="M79.0186 10.092V21.8398H87.0131L96.5509 10.092H79.0186Z" stroke="#565656" stroke-width="3"/>
<path d="M141.7 10.091L150.201 21.8389H160.942V10.091H141.7Z" stroke="#565656" stroke-width="3"/>
<path d="M128.118 21.8396H142.452L133.951 10.0918H104.637L95.0992 21.8396H111.843H113.343V23.3396V52.7688L126.618 45.5145V23.3396V21.8396H128.118Z" stroke="#565656" stroke-width="3"/>
<path d="M245.306 103.71H258.322V80.496L245.306 87.2221V103.71Z" stroke="#565656" stroke-width="3"/>
<path d="M193.997 10.0918H180.981V34.0786L193.997 22.2241V10.0918Z" stroke="#565656" stroke-width="3"/>
<path d="M180.979 103.71H193.995V91.0842L180.979 78.4827V103.71Z" stroke="#565656" stroke-width="3"/>
<path d="M258.324 73.4314V50.7155L245.308 65.7517V80.1575L258.324 73.4314Z" stroke="#565656" stroke-width="3"/>
<path d="M258.324 33.559L245.308 27.8934V48.2565V49.7565H243.808H219.974L221.377 61.501H240.68L258.324 41.1251V33.559Z" stroke="#565656" stroke-width="3"/>
<path d="M258.324 10.0911H245.308V21.0476L258.324 26.7131V10.0911Z" stroke="#565656" stroke-width="3"/>
<path d="M195.497 49.756H193.997V48.256V30.713L180.981 42.5648V69.749L193.997 82.3506V63.0039V61.5039H195.497H215.056L213.65 49.756H195.497Z" stroke="#565656" stroke-width="3"/>
<path d="M387.161 96.5137L398.682 85.0101V65.2005L385.665 74.7539V88.685C385.665 91.8062 386.198 94.4067 387.161 96.5137Z" stroke="#565656" stroke-width="3"/>
<path d="M386.482 15.9935L393.635 26.8717L404.537 10.0919H390.089L386.482 15.9935Z" stroke="#565656" stroke-width="3"/>
<path d="M344.016 10.0916H331V13.1842L344.016 20.4747V10.0916Z" stroke="#565656" stroke-width="3"/>
<path d="M344.016 42.252V27.6683L331 20.3778V57.4982L344.016 42.252Z" stroke="#565656" stroke-width="3"/>
<path d="M398.681 57.4124V50.01H381.367H378.604L380.109 47.693L389.902 32.6165L382.863 21.9115L366.118 49.2926L365.909 49.6346L371.656 61.5029H384.165H385.665V63.0029V66.9685L398.681 57.4124Z" stroke="#565656" stroke-width="3"/>
<path d="M330.998 103.71H344.014V84.5231L330.998 85.082V103.71Z" stroke="#565656" stroke-width="3"/>
<path d="M400.181 103.71H406.565V91.9621H405.012C403.693 91.9621 402.507 91.6458 401.522 91.0469L391.202 101.347C393.462 102.866 396.446 103.71 400.181 103.71Z" stroke="#565656" stroke-width="3"/>
<path d="M345.646 50.01L331 67.166V78.7988L344.016 78.2426V63.003V61.503H345.516H364.681L359.115 50.01H345.646Z" stroke="#565656" stroke-width="3"/>
<path d="M429.27 64.7307L431.066 69.3201L441.022 63.9622L436.121 50.1455L429.27 64.7307Z" stroke="#565656" stroke-width="3"/>
<path d="M485.739 50.2144L471.805 54.7232L468.83 64.3042L477.449 74.7564L485.739 50.2144Z" stroke="#565656" stroke-width="3"/>
<path d="M488.242 42.8069L492.424 30.4319H479.348L474.082 47.3876L488.242 42.8069Z" stroke="#565656" stroke-width="3"/>
<path d="M466.603 71.4717L462.001 86.2967L468.862 100.177L475.084 81.7562L466.603 71.4717Z" stroke="#565656" stroke-width="3"/>
<path d="M433.585 103.625L427.964 93.5458C423.471 98.2441 421.261 103.569 421.261 110.04C421.261 118.812 425.25 125.256 431.694 128.345L437.412 119.862C433.83 118.315 431.737 114.748 431.737 110.295C431.737 107.896 432.247 105.642 433.585 103.625Z" stroke="#565656" stroke-width="3"/>
<path d="M433.134 41.7317L429.125 30.4319H415.856L426.12 56.6735L433.134 41.7317Z" stroke="#565656" stroke-width="3"/>
<path d="M451.147 92.4906L443.147 69.9467L433.37 75.2081L439.72 91.4426L440.52 93.489H438.323H435.119L440.251 102.694H453.832H455.914L455.255 104.669L453.729 109.245L453.726 109.253L453.723 109.261C451.828 114.73 448.93 118.764 444.787 120.149L438.025 130.178C439.101 130.328 440.216 130.408 441.372 130.408C446.903 130.408 451.545 128.731 455.564 125.153C459.522 121.63 462.955 116.191 465.958 108.466L458.556 93.489H452.561H451.501L451.147 92.4906Z" stroke="#565656" stroke-width="3"/>
<path d="M524.033 4.49847H510.253V16.7529H524.033V4.49847Z" stroke="#565656" stroke-width="3"/>
<path d="M511.018 76.4155L523.272 84.6301V47.2748L511.018 54.7644V76.4155Z" stroke="#565656" stroke-width="3"/>
<path d="M523.272 30.4327H511.018V47.4102L523.272 39.9207V30.4327Z" stroke="#565656" stroke-width="3"/>
<path d="M511.018 103.71H523.272V92.1882L511.018 83.971V103.71Z" stroke="#565656" stroke-width="3"/>
<path d="M560.264 41.8212L556.025 30.432H542.485L551.561 53.5035L560.264 41.8212Z" stroke="#565656" stroke-width="3"/>
<path d="M595.253 51.793L587.452 72.9762L592.244 90.6597L603.071 63.3676L595.253 51.793Z" stroke="#565656" stroke-width="3"/>
<path d="M559.199 72.926L570.381 68.9806L562.874 48.8254L554.267 60.3789L559.199 72.926Z" stroke="#565656" stroke-width="3"/>
<path d="M597.925 44.5332L605.872 56.3031L616.135 30.4311H603.118L597.925 44.5332Z" stroke="#565656" stroke-width="3"/>
<path d="M581.103 90.2188L579.703 94.0204L578.289 90.2239L572.57 74.865L561.497 78.7721L571.306 103.71H587.067L588.379 100.401L583.705 83.1522L581.103 90.2188Z" stroke="#565656" stroke-width="3"/>
</svg>
