<svg width="631" height="616" viewBox="0 0 631 616" fill="none" xmlns="http://www.w3.org/2000/svg">
<path d="M183.374 136.316L291.373 205.461C291.373 205.461 295.983 1.97826 297.3 -0.000228135L183.374 136.316ZM344.365 187.683L326.273 441.87L466.58 163.633L344.365 187.683Z" fill="url(#paint0_linear_255_43)"/>
<path d="M315.751 98.6543V26.5078M315.751 98.6543L205.608 163.634L315.751 26.5078M315.751 98.6543L425.891 163.634L315.751 26.5078M315.751 234.58L315.751 119.408M315.751 234.58L205.611 184.559M315.751 234.58V429.974M315.751 234.58L425.888 184.559M315.751 119.408L205.611 184.559M315.751 119.408L425.888 184.559M205.611 184.559L315.751 429.974M315.751 429.974L425.888 184.559M51.1265 274.375L1 238.933L42.1663 382.818L51.1265 274.375ZM51.1265 274.375L1 238.936L150.376 229.773L51.1265 274.375ZM145.564 341.148L65.5461 284.572M145.564 341.148L56.7056 393.099M145.564 341.148L281.318 437.133L56.7056 393.099M65.5461 284.572L56.7056 393.099M65.5461 284.572L145.561 341.148M65.5461 284.572L164.915 240.056M145.561 341.148L164.915 240.056M145.561 341.148L281.315 437.136L164.915 240.056M62.527 559.295L13.6178 579.815L137.906 615.482L62.527 559.295ZM62.527 559.295L13.6178 579.818L75.2504 466.146L62.527 559.295ZM154.675 520.634L76.5988 553.39M154.675 520.634L152.092 609.526M154.675 520.634L287.137 465.057M154.675 520.634L89.4362 460.196M76.5988 553.39L152.092 609.526M76.5988 553.39L89.4362 460.196M152.092 609.526L287.137 465.057M287.137 465.057L89.4362 460.196M485.935 341.148L565.95 284.572M485.935 341.148L574.79 393.099M485.935 341.148L350.181 437.133L574.79 393.099M485.935 341.148L466.584 240.056M485.935 341.148L350.183 437.136L466.584 240.056M565.95 284.572L574.79 393.099M565.95 284.572L466.584 240.056M568.972 559.295L617.881 579.815L493.593 615.482L568.972 559.295ZM568.972 559.295L617.881 579.818L556.249 466.146L568.972 559.295ZM476.824 520.634L554.9 553.39M476.824 520.634L479.407 609.526M476.824 520.634L344.362 465.057M476.824 520.634L542.06 460.196M554.9 553.39L479.407 609.526M554.9 553.39L542.06 460.196M479.407 609.526L344.362 465.057M344.362 465.057L542.06 460.196M580.372 274.375L630.499 238.933L589.333 382.818L580.372 274.375ZM580.375 274.378L630.499 238.936L481.12 229.773L580.375 274.378Z" stroke="black" stroke-miterlimit="10" stroke-linecap="round" stroke-linejoin="round"/>
<defs>
<linearGradient id="paint0_linear_255_43" x1="183.376" y1="-16.1335" x2="435.597" y2="-16.1335" gradientUnits="userSpaceOnUse">
<stop offset="0.0104167" stop-color="#43D7AD"/>
<stop offset="0.286458" stop-color="#4AC1FF"/>
<stop offset="0.84375" stop-color="#FADD4F"/>
<stop offset="1" stop-color="#FFD039"/>
</linearGradient>
</defs>
</svg>
